<?xml version="1.0" encoding="utf-8"?>
<svg xmlns="http://www.w3.org/2000/svg" viewBox="0 0 500 500">
  <g id="Слой_1" transform="matrix(12.513196, 0, 0, 12.50859, -5238.210937, -280.515472)" style="">
    <g transform="matrix(1, 0, 0, 1, 418.732574, 22.405062)">
      <path d="M15.3,30.9C6.8,30.9-0.1,24-0.1,15.5S6.8,0,15.3,0S30.8,7,30.8,15.5c0,1.2-0.1,2.4-0.4,3.6c-0.1,0.5-0.7,0.9-1.2,0.7   c-0.5-0.1-0.9-0.7-0.7-1.2c0.2-1,0.4-2,0.4-3.1c0-7.4-6-13.5-13.5-13.5S1.9,8.1,1.9,15.5s6,13.5,13.5,13.5c1.1,0,2.1-0.1,3.2-0.4   c0.5-0.1,1.1,0.2,1.2,0.7c0.1,0.5-0.2,1.1-0.7,1.2C17.8,30.8,16.6,30.9,15.3,30.9z" style="fill: rgb(255, 255, 255);"/>
    </g>
    <g transform="matrix(1, 0, 0, 1, 418.732574, 22.405062)">
      <path d="M36.4,40c-0.9,0-1.8-0.4-2.5-1l-11-11c-0.4-0.4-0.4-1,0-1.4s1-0.4,1.4,0l11,11c0.6,0.6,1.6,0.6,2.1,0   c0.6-0.6,0.6-1.6,0-2.1l-11-11c-0.4-0.4-0.4-1,0-1.4s1-0.4,1.4,0l11,11c1.4,1.4,1.4,3.6,0,5C38.2,39.6,37.3,40,36.4,40z" style="fill: rgb(255, 255, 255);"/>
    </g>
    <g transform="matrix(1, 0, 0, 1, 418.732574, 22.405062)">
      <path d="M15.3,27C9,27,3.8,21.8,3.8,15.5S9,4,15.3,4s11.5,5.2,11.5,11.5S21.7,27,15.3,27z M15.3,6c-5.2,0-9.5,4.3-9.5,9.5   s4.3,9.5,9.5,9.5s9.5-4.3,9.5-9.5S20.6,6,15.3,6z" style="fill: rgb(255, 255, 255);"/>
    </g>
  </g>
  <path fill-rule="evenodd" clip-rule="evenodd" d="M 192.029 70.64 C 124.917 70.64 70.664 125.845 70.664 194.145 C 70.664 248.738 105.425 294.952 153.652 311.307 C 159.68 312.537 161.889 308.651 161.889 305.38 C 161.889 302.517 161.69 292.703 161.69 282.477 C 127.928 289.84 120.899 267.755 120.899 267.755 C 115.472 253.441 107.433 249.763 107.433 249.763 C 96.384 242.196 108.239 242.196 108.239 242.196 C 120.496 243.015 126.928 254.874 126.928 254.874 C 137.776 273.684 155.258 268.368 162.29 265.098 C 163.295 257.122 166.51 251.602 169.927 248.535 C 143.001 245.672 114.671 235.038 114.671 187.599 C 114.671 174.104 119.489 163.064 127.127 154.476 C 125.922 151.408 121.7 138.729 128.334 121.758 C 128.334 121.758 138.581 118.487 161.686 134.436 C 171.579 131.729 181.782 130.354 192.029 130.346 C 202.277 130.346 212.723 131.778 222.369 134.436 C 245.477 118.487 255.725 121.758 255.725 121.758 C 262.359 138.729 258.135 151.408 256.93 154.476 C 264.768 163.064 269.389 174.104 269.389 187.599 C 269.389 235.038 241.058 245.465 213.93 248.535 C 218.353 252.419 222.169 259.778 222.169 271.437 C 222.169 287.997 221.97 301.291 221.97 305.379 C 221.97 308.651 224.181 312.537 230.208 311.31 C 278.431 294.949 313.194 248.738 313.194 194.145 C 313.393 125.845 258.939 70.64 192.029 70.64 Z" style="stroke-width: 1; transform-box: fill-box; transform-origin: 50% 50%; fill: rgb(255, 255, 255);" transform="matrix(0.733981, -0.67917, 0.67917, 0.733981, 0.00001, -0.000003)"/>
</svg>